Input #0, mov,mp4,m4a,3gp,3g2,mj2, from '/home/hbattu/projects/huberman-gpt/huberman-audio/mp3/tmpdlfz1c5y.mp4':
  Metadata:
    major_brand     : dash
    minor_version   : 0
    compatible_brands: iso6mp41
    creation_time   : 2022-07-01T02:14:19.000000Z
  Duration: 02:33:35.47, start: 0.000000, bitrate: 129 kb/s
    Stream #0:0(eng): Audio: aac (LC) (mp4a / 0x6134706D), 44100 Hz, stereo, fltp, 0 kb/s (default)
    Metadata:
      creation_time   : 2022-07-01T02:14:19.000000Z
      handler_name    : ISO Media file produced by Google Inc.
Stream mapping:
  Stream #0:0 -> #0:0 (aac (native) -> mp3 (libmp3lame))
Press [q] to stop, [?] for help
[graph_0_in_0_0 @ 0x562d79e16bc0] tb:1/44100 samplefmt:fltp samplerate:44100 chlayout:0x3
Output #0, mp3, to '../huberman-audio/mp3/OadokY8fcAA.mp3':
  Metadata:
    major_brand     : dash
    minor_version   : 0
    compatible_brands: iso6mp41
    TSSE            : Lavf58.29.100
    Stream #0:0(eng): Audio: mp3 (libmp3lame), 44100 Hz, stereo, fltp, delay 1105 (default)
    Metadata:
      creation_time   : 2022-07-01T02:14:19.000000Z
      handler_name    : ISO Media file produced by Google Inc.
      encoder         : Lavc58.54.100 libmp3lame
No more output streams to write to, finishing.
size=  143993kB time=02:33:35.47 bitrate= 128.0kbits/s speed=96.5x    
[AVIOContext @ 0x562d79d02900] Statistics: 0 seeks, 191 writeouts
video:0kB audio:143992kB subtitle:0kB other streams:0kB global headers:0kB muxing overhead: 0.000235%
Input file #0 (/home/hbattu/projects/huberman-gpt/huberman-audio/mp3/tmpdlfz1c5y.mp4):
  Input stream #0:0 (audio): 396877 packets read (147447455 bytes); 396877 frames decoded (406402048 samples); 
  Total: 396877 packets (147447455 bytes) demuxed
Output file #0 (../huberman-audio/mp3/OadokY8fcAA.mp3):
  Output stream #0:0 (audio): 352780 frames encoded (406402048 samples); 352781 packets muxed (147448058 bytes); 
  Total: 352781 packets (147448058 bytes) muxed
[AVIOContext @ 0x562d79d2b280] Statistics: 2 seeks, 564 writeouts
[AVIOContext @ 0x562d79d0b880] Statistics: 149142695 bytes read, 0 seeks
